<svg width="26" height="32" viewBox="0 0 26 32" fill="none" xmlns="http://www.w3.org/2000/svg">
<path d="M20.8479 31.3668L0.658986 17.1821C0.419355 17.0132 0.250015 16.8303 0.150968 16.6332C0.0503226 16.4362 0 16.2252 0 16C0 15.7748 0.0503226 15.5638 0.150968 15.3668C0.250015 15.1697 0.419355 14.9868 0.658986 14.8179L20.8479 0.591029C21.4071 0.19701 22.106 0 22.9447 0C23.7834 0 24.5023 0.211082 25.1014 0.633245C25.7005 1.05541 26 2.11082 26 2.11082C26 2.6737 25.7005 3.16623 25.1014 3.58839L7.48848 16L25.1014 28.4116C25.6605 28.8056 25.9401 29.8672 25.9401 29.8672C25.9401 30.4447 25.6406 30.9446 25.0415 31.3668C24.4424 31.7889 23.7435 32 22.9447 32C22.1459 32 21.447 31.7889 20.8479 31.3668Z" fill="#FCA311"/>
</svg>
