<svg width="37" height="32" viewBox="0 0 37 32" fill="none" xmlns="http://www.w3.org/2000/svg">
<path d="M34.6875 13.1765H2.3125C1.03535 13.1765 0 14.4406 0 16C0 17.5594 1.03535 18.8235 2.3125 18.8235H34.6875C35.9646 18.8235 37 17.5594 37 16C37 14.4406 35.9646 13.1765 34.6875 13.1765Z" fill="#FCA311"/>
<path d="M2.3125 5.64707H34.6875C35.9646 5.64707 37 4.38292 37 2.82353C37 1.26415 35.9646 0 34.6875 0H2.3125C1.03535 0 0 1.26415 0 2.82353C0 4.38292 1.03535 5.64707 2.3125 5.64707Z" fill="#FCA311"/>
<path d="M34.6875 26.3529H2.3125C1.03535 26.3529 0 27.6171 0 29.1765C0 30.7359 1.03535 32 2.3125 32H34.6875C35.9646 32 37 30.7359 37 29.1765C37 27.6171 35.9646 26.3529 34.6875 26.3529Z" fill="#FCA311"/>
</svg>
